<svg xmlns="http://www.w3.org/2000/svg" viewBox="0 0 64 64" role="img">
  <title>Black and White Drift Logo</title>
  <rect width="64" height="64" rx="12" fill="#0c0c0c"/>
  <g transform="translate(32 16)">
    <path d="M0 -14 L16 0 L0 14 L-16 0 Z" fill="#111" stroke="#fff" stroke-width="3"/>
    <path d="M0 -12 L14 0 L0 12 L-14 0 Z" fill="none" stroke="#9ca3af" stroke-width="1.5"/>
  </g>
  <g>
    <path d="M14 36 L18 28 L46 28 L50 36 L46 36 L44 31 L20 31 L18 36 Z" fill="#fff"/>
    <path d="M18 28 L22 24 H42 L46 28" fill="#111"/>
    <path d="M22 24 L26 18 H38 L42 24" fill="#fff"/>
    <path d="M18 36 L16 40 H20 L22 36 Z" fill="#111"/>
    <path d="M46 36 L44 40 H48 L50 36 Z" fill="#111"/>
  </g>
  <circle cx="20" cy="46" r="5" fill="#111" stroke="#fff" stroke-width="2"/>
  <circle cx="44" cy="46" r="5" fill="#111" stroke="#fff" stroke-width="2"/>
  <circle cx="20" cy="46" r="2" fill="#fff"/>
  <circle cx="44" cy="46" r="2" fill="#fff"/>
  <path d="M18 34 C10 34, 8 40, 8 42" fill="none" stroke="#fff" stroke-width="2" opacity="0.7" stroke-linecap="round"/>
  <path d="M22 34 C14 34, 12 38, 12 40" fill="none" stroke="#fff" stroke-width="1.5" opacity="0.55" stroke-linecap="round"/>
  <path d="M30 42 L34 42 L34 48 L30 48 Z" fill="#fff"/>
  <path d="M38 42 L42 42 L42 48 L38 48 Z" fill="#fff"/>
  <path d="M16 54 H48" stroke="#fff" stroke-width="2" opacity="0.4"/>
  <text x="32" y="58" text-anchor="middle" font-family="Arial, Helvetica, sans-serif" font-size="8" font-weight="700" fill="#fff" letter-spacing="-0.3">DRIFT</text>
</svg>
